<svg viewBox="0 0 381 332" fill="none" xmlns="http://www.w3.org/2000/svg">
<path d="M91.932 22.3221C89.3347 25.5494 87.0642 28.393 85.3537 32.1633C86.1766 34.6231 86.1766 34.6231 87.0161 37.1325C91.7165 38.8662 96.2216 40.2924 101.043 41.5841C103.012 42.1429 103.012 42.1429 105.02 42.7131C111.714 44.704 111.714 44.704 118.602 45.4145C118.986 44.3148 119.369 43.2152 119.764 42.0823C123.465 32.0994 126.843 23.8154 136.992 18.9122C140.213 18.9122 140.213 18.9122 143.85 20.5686C147.163 24.2111 148.241 26.9075 148.72 31.7945C148.382 38.1823 146.506 44.1712 144.688 50.2801C143.351 56.1792 142.892 60.9186 143.538 66.9475C146.467 71.3804 146.467 71.3804 150.707 75.2295C182.762 108.204 220.843 161.221 226.659 207.741C226.029 211.946 226.029 211.946 224.997 216.022C224.829 217.225 224.662 218.427 224.49 219.665C223.334 222.648 223.334 222.648 220.308 224.44C210.148 227.649 202.754 228.359 192.579 224.304C187.301 220.097 183.75 215.128 179.709 209.759C164.966 191.218 142.373 188.533 120.264 185.379C76.8752 179.14 76.8752 179.14 65.8268 166.26C61.0442 159.355 61.1414 141.726 48.7806 138.172C44.7583 137.016 42.4177 136.443 38.0788 137.551C24.9205 144.586 18.4316 157.519 13.766 171.048C8.28069 189.425 5.98197 208.607 3.39536 227.559C2.70702 232.598 1.96966 237.619 1.12253 242.635C-2.34052 263.057 1.69137 283.605 20.5195 293.873C39.018 303.96 59.7961 299.482 73.509 283.52C84.1794 271.1 83.2795 257.3 82.0289 242.525C79.9832 218.357 86.6344 201.495 115.381 205.256C126.539 207.564 134.628 210.659 142.395 219.749C153.505 232.752 152.703 247.581 149.35 262.922C147.925 268.671 146.399 274.39 144.863 280.11C141.725 292.053 138.762 302.522 143.85 315.302C156.398 346.82 212.435 328.73 229.984 302.155C235.615 291.838 236.788 282.582 236.322 270.994C235.949 228.954 256.821 201.843 300.468 194.819C325.012 192.947 311.22 240.203 308.675 253.245C305.306 271.039 306.335 292.3 329.729 287.247C351.89 278.52 368.149 263.616 376.309 240.04C387.362 200.728 377.86 158.008 358.509 123.058C336.569 86.0198 301.162 59.2125 264.895 37.1325C262.603 35.7073 262.603 35.7073 260.264 34.2532C216.112 7.54983 135.121 -21.0396 91.932 22.3221ZM118.602 119.952C112.577 123.772 112.577 134.352 118.602 138.172C122.436 140.603 126.405 140.603 130.239 138.172C136.264 134.352 136.264 123.772 130.239 119.952C126.405 117.521 122.436 117.521 118.602 119.952Z" fill="darkgrey"/>
</svg>
