<svg viewBox="0 0 529 131" fill="none" xmlns="http://www.w3.org/2000/svg">
<path d="M34.1 130.4V24.4H0V1.70001H95.4V24.4H61.3V130.4H34.1Z" fill="white"/>
<path d="M156.1 27.7C149.9 45 144.7 61.8 140.4 78.1H171.8C167.4 61.8 162.2 45 156.1 27.7ZM140.6 1.70001H171.6C176.5 12.8 183.9 33.1 193.7 62.8C203.5 92.4 210.2 115 213.6 130.5H185.4C183.4 121.9 180.7 111.7 177.3 100.1H134.9C131.5 111.8 128.7 121.9 126.8 130.5H98.6C102 115 108.7 92.4 118.5 62.8C128.3 33.1 135.7 12.7 140.6 1.70001Z" fill="white"/>
<path d="M389.8 1.70001H362.7V130.5H389.8V1.70001Z" fill="white"/>
<path d="M281 0C264.9 0 251.3 0.899988 240.2 2.79999V27.9C259.6 22.1 278.2 21.8 280 21.8C297 21.8 305.5 28.5 305.5 41.9C305.5 49.8 303.9 55.6 300.6 59.3C297.3 63.1 292 65.3 284.5 66.2C249.3 70.4 240.2 77.1 240.2 89.2V130.3H267.3V108.5C267.3 101.7 267.7 97 268.6 94.4C269.5 91.8 270.9 90 273 89C275.1 88.1 279.1 87.4 285.2 86.9C300.8 85.4 312.8 81.2 321.1 74.1C329.4 67 333.6 56.2 333.6 41.7C333.5 14 316 0 281 0Z" fill="white"/>
<path d="M512.8 101.5C507.5 93.1 502.6 86.3 498 81C502.1 79.1 505.7 76.9 508.8 74.3C517.1 67.2 521.3 56.4 521.3 41.9C521.3 14 503.8 0 468.7 0C452.6 0 439 0.899988 427.9 2.79999V27.9C447.3 22.1 465.9 21.8 467.7 21.8C484.7 21.8 493.2 28.5 493.2 41.9C493.2 49.8 491.6 55.6 488.3 59.3C485 63.1 479.7 65.3 472.2 66.2C437 70.4 427.9 77.1 427.9 89.2V130.3H455V108.5C455 101.7 455.4 97 456.3 94.4C457.2 91.8 458.6 90 460.7 89C462.7 88.1 466.6 87.4 472.4 86.9C475.9 91.4 480 97.4 484.7 105C490.5 114.3 495.1 122.7 498.5 130.2H528.8C524.4 121.1 519.1 111.4 512.8 101.5Z" fill="white"/>
</svg>
